<svg width="28" height="28" viewBox="0 0 28 28" fill="none" xmlns="http://www.w3.org/2000/svg">
<circle cx="14" cy="14" r="14" fill="#014DAF"/>
<path d="M20.6666 12.6668H7.33325M20.6666 13.3335V11.4668C20.6666 10.7201 20.6666 10.3467 20.5213 10.0615C20.3934 9.81063 20.1895 9.60665 19.9386 9.47882C19.6534 9.3335 19.28 9.3335 18.5333 9.3335H9.46659C8.71985 9.3335 8.34648 9.3335 8.06126 9.47882C7.81038 9.60665 7.60641 9.81063 7.47858 10.0615C7.33325 10.3467 7.33325 10.7201 7.33325 11.4668V16.5335C7.33325 17.2802 7.33325 17.6536 7.47858 17.9388C7.60641 18.1897 7.81038 18.3937 8.06126 18.5215C8.34648 18.6668 8.71985 18.6668 9.46659 18.6668H13.6666M17.9999 20.0002C17.9999 20.0002 19.9999 19.0469 19.9999 17.617V15.9488L18.5415 15.4276C18.1911 15.3021 17.8079 15.3021 17.4575 15.4276L15.9999 15.9488V17.617C15.9999 19.0469 17.9999 20.0002 17.9999 20.0002Z" stroke="white" stroke-linecap="round" stroke-linejoin="round"/>
</svg>
