<svg width="29" height="28" viewBox="0 0 29 28" fill="none" xmlns="http://www.w3.org/2000/svg">
<circle cx="14.5" cy="14" r="14" fill="#014DAF"/>
<path d="M19.1668 20.0002V16.0002M17.1668 18.0002H21.1668M21.1668 12.6668H7.8335M21.1668 14.0002V11.4668C21.1668 10.7201 21.1668 10.3467 21.0215 10.0615C20.8937 9.81063 20.6897 9.60665 20.4388 9.47882C20.1536 9.3335 19.7802 9.3335 19.0335 9.3335H9.96683C9.22009 9.3335 8.84672 9.3335 8.56151 9.47882C8.31063 9.60665 8.10665 9.81063 7.97882 10.0615C7.8335 10.3467 7.8335 10.7201 7.8335 11.4668V16.5335C7.8335 17.2802 7.8335 17.6536 7.97882 17.9388C8.10665 18.1897 8.31063 18.3937 8.56151 18.5215C8.84672 18.6668 9.22009 18.6668 9.96683 18.6668H14.5002" stroke="white" stroke-linecap="round" stroke-linejoin="round"/>
</svg>
